# xmcd
#
# Track frame offsets:
#	150
#	10822
#	21622
#	32187
#	42360
#	53245
#	65285
#	73752
#	84357
#	95582
#	106717
#	115622
#	126155
#	136790
#	147470
#	160192
#	170272
#	180030
#
# Disc length: 2563 seconds
#
# Revision: 0
# Processed by: cddbd v1.5.1PL0 Copyright (c) Steve Scherf et al.
# Submitted via: dBpowerAMP V4.0
#
DISCID=e90a0112
DTITLE=Ace Cannon - The Best Of
DYEAR=1900
DGENRE=
TTITLE0=Tuff
TTITLE1=Sittin`Tight
TTITLE2=Looking Back
TTITLE3=Kansas City
TTITLE4=Empty Arms
TTITLE5=The Prisoners Song
TTITLE6=Cottonfields
TTITLE7=Sunday Blues
TTITLE8=Searchin
TTITLE9=Blues Stay Away From Me
TTITLE10=Heartbreak Hotel
TTITLE11=I Walk The Line
TTITLE12=Funny (How Time Slips Away)
TTITLE13=Soulf for Sale
TTITLE14=Memory
TTITLE15=Moanin
TTITLE16=Ìf I Had a Hammer
TTITLE17=Drunk
EXTD=The Hi Records Years  - Best of Sax
EXTT0=
EXTT1=
EXTT2=
EXTT3=
EXTT4=
EXTT5=
EXTT6=
EXTT7=
EXTT8=
EXTT9=
EXTT10=
EXTT11=
EXTT12=
EXTT13=
EXTT14=
EXTT15=
EXTT16=
EXTT17=
PLAYORDER=
